# xmcd
#
# Track frame offsets:
#	150
#	24061
#	44926
#	64345
#	84820
#	105983
#	127434
#	146830
#	165240
#	180962
#	203800
#	223865
#	242497
#	263995
#	285925
#	307103
#
# Disc length: 4392 seconds
#
# Revision: 0
# Processed by: cddbd v1.5.1PL0 Copyright (c) Steve Scherf et al.
# Submitted via: dBpowerAMP V4.0
#
DISCID=e3112610
DTITLE=Celine Dion - Millenium Collection
DYEAR=1900
DGENRE=Pop
TTITLE0=Goodbye
TTITLE1=My Heart Will Go On
TTITLE2=A New Day Has Come
TTITLE3=Because You Loved Me
TTITLE4=Think Twice
TTITLE5=I Surrender
TTITLE6=Falling Into You
TTITLE7=When I Need You
TTITLE8=I'm Alive
TTITLE9=All By Myself
TTITLE10=The Prayer (with. A. Bocelli)
TTITLE11=I'm Your (with. R. Kelly)
TTITLE12=Tous Les Blues Ectrits Por Toi
TTITLE13=Ave Maria
TTITLE14=I Hate You Then I Love You (with. L. Pavarotti)
TTITLE15=Just Walk Away
EXTD=
EXTT0=
EXTT1=
EXTT2=
EXTT3=
EXTT4=
EXTT5=
EXTT6=
EXTT7=
EXTT8=
EXTT9=
EXTT10=
EXTT11=
EXTT12=
EXTT13=
EXTT14=
EXTT15=
PLAYORDER=
